<svg xmlns="http://www.w3.org/2000/svg" version="1.1" xmlns:xlink="http://www.w3.org/1999/xlink" width="512" height="512" x="0" y="0" viewBox="0 0 512 512" style="enable-background:new 0 0 512 512" xml:space="preserve" class=""><g><path fill="#61444f" d="m262.601 120.608-146.988 52.116v141.082l90.3 53.1z" opacity="1" data-original="#61444f" class=""></path><path fill="#87646f" d="M336.265 25.193 256 42.092v329.041h71.587s68.8-56.639 68.8-167.434v-63.312c0-47.688-23.777-89.822-60.122-115.194z" opacity="1" data-original="#87646f" class=""></path><path fill="#f5ab73" d="m99.122 401.236 85.291-30.103a33.032 33.032 0 0 0 22.039-31.149v-20.226h99.097v20.226a33.033 33.033 0 0 0 22.038 31.149l85.291 30.103c19.81 6.992 33.057 25.716 33.057 46.723v39.267c0 13.682-11.092 24.774-24.774 24.774H90.839c-13.682 0-24.774-11.092-24.774-24.774v-39.267c-.001-21.007 13.247-39.731 33.057-46.723z" opacity="1" data-original="#f5ab73" class=""></path><path fill="#61444f" d="m239.484 404.645 5.437 2.718a24.777 24.777 0 0 0 22.159 0l5.437-2.718 8.258 8.258v90.839L272.516 512h-33.032l-8.258-8.258v-90.839z" opacity="1" data-original="#61444f" class=""></path><path fill="#ff7e8f" d="M206.452 371.613h-23.398l-45.666 16.117L148.645 512h90.839V404.645z" opacity="1" data-original="#ff7e8f"></path><path fill="#fc5f7a" d="m132.129 389.586-33.007 11.65c-19.81 6.991-33.057 25.716-33.057 46.723v39.267c0 13.682 11.092 24.774 24.774 24.774h24.774zM188.097 333.093c.913-5.48 6.869-8.513 11.839-6.029l25.853 12.926a24.775 24.775 0 0 1 13.695 22.159v42.495l-57.806-33.032z" opacity="1" data-original="#fc5f7a" class=""></path><path fill="#ff7e8f" d="m441.91 428.392-9.067-13.99a49.459 49.459 0 0 0-19.965-13.166l-83.932-29.623h-23.398l-33.032 33.032V512h99.097l7.621-7.61 8.895 7.61h33.032c13.682 0 24.774-11.092 24.774-24.774v-39.267a49.429 49.429 0 0 0-4.025-19.567z" opacity="1" data-original="#ff7e8f"></path><path fill="#fc5f7a" d="m386.032 454.552 46.811-40.15a49.518 49.518 0 0 1 9.075 13.986l-45.144 38.704a24.75 24.75 0 0 0-8.645 18.81V512h-16.516v-26.097c0-12.072 5.258-23.5 14.419-31.351z" opacity="1" data-original="#fc5f7a" class=""></path><path fill="#df976c" d="M305.548 319.758c-13.436 5.983-28.091 9.695-43.582 10.424-1.999.094-3.989.141-5.967.141-17.619 0-34.359-3.755-49.548-10.415v-30.876h99.097z" opacity="1" data-original="#df976c" class=""></path><path fill="#f8ba7e" d="M388.022 191.935c-1.076-10.745-10.917-18.515-21.716-18.515-10.752 0-19.468-8.716-19.468-19.468v-13.565c0-19.565-13.608-35.952-31.876-40.212l-149.801 40.212-5.62 61.343c4.23 55.419 39.956 110.28 96.458 110.28 5.672 0 11.24 1.356 16.672.508 48.684-7.599 86.461-47.953 90.266-97.809h4.546c12.105.001 21.777-10.417 20.539-22.774z" opacity="1" data-original="#f8ba7e" class=""></path><path fill="#f5ab73" d="M314.963 100.175a41.595 41.595 0 0 0-9.414-1.078h-99.097c-9.339 0-17.857 3.217-24.774 8.445-9.974 7.537-16.516 19.381-16.516 32.845v14.409c0 10.709-8.982 18.518-19.69 18.624-10.711.106-20.424 7.842-21.493 18.514-1.237 12.358 8.433 22.775 20.538 22.775h4.546c4.23 55.419 50.435 99.097 106.938 99.097 5.649 0 11.26-.447 16.672-1.288-51.454-7.941-90.994-52.39-90.994-106.067v-2.87c0-10.948 7.223-20.492 17.7-23.668 45.931-13.926 86.339-41.894 115.584-79.738z" opacity="1" data-original="#f5ab73" class=""></path><path fill="#61444f" d="M305.548 198.194a8.256 8.256 0 0 0 8.258-8.258v-8.258a8.256 8.256 0 0 0-8.258-8.258 8.256 8.256 0 0 0-8.258 8.258v8.258a8.256 8.256 0 0 0 8.258 8.258zM206.452 198.194a8.256 8.256 0 0 0 8.258-8.258v-8.258c0-4.56-3.694-8.258-8.258-8.258s-8.258 3.698-8.258 8.258v8.258a8.256 8.256 0 0 0 8.258 8.258z" opacity="1" data-original="#61444f" class=""></path><path fill="#fc5f7a" d="M256 256c12.387 0 23.823-3.976 30.573-10.637 3.25-3.202 3.282-8.431.081-11.677-3.202-3.25-8.444-3.282-11.677-.081-2.75 2.714-9.371 5.879-18.976 5.879s-16.226-3.165-18.976-5.879c-3.234-3.202-8.476-3.169-11.677.081-3.202 3.246-3.169 8.476.081 11.677C232.177 252.024 243.613 256 256 256z" opacity="1" data-original="#fc5f7a" class=""></path><path fill="#6b4f5a" d="M256 0c29.867 0 57.508 9.293 80.265 25.193-28.029 85.974-108.806 148.226-204.136 148.226-5.564 0-11.059-.279-16.516-.695v-32.338C115.613 62.853 178.466 0 256 0z" opacity="1" data-original="#6b4f5a" class=""></path><path fill="#61444f" d="M206.452 313.806v33.032c0 72.919-57.806 99.097-57.806 165.161h-33.032V313.806z" opacity="1" data-original="#61444f" class=""></path><path fill="#fc5f7a" d="M323.903 333.093c-.913-5.48-6.869-8.513-11.839-6.029l-25.853 12.926a24.775 24.775 0 0 0-13.695 22.159v42.495l57.806-33.032z" opacity="1" data-original="#fc5f7a" class=""></path><path fill="#87646f" d="M313.806 165.161H297.29c-4.565 0-8.258-3.694-8.258-8.258s3.694-8.258 8.258-8.258h16.516c4.565 0 8.258 3.694 8.258 8.258s-3.693 8.258-8.258 8.258z" opacity="1" data-original="#87646f" class=""></path><path fill="#61444f" d="M214.71 165.161h-16.516c-4.565 0-8.258-3.694-8.258-8.258s3.694-8.258 8.258-8.258h16.516c4.565 0 8.258 3.694 8.258 8.258s-3.694 8.258-8.258 8.258z" opacity="1" data-original="#61444f" class=""></path></g></svg>